# xmcd CD database file
#
# Track frame offsets:
#	150
#	14945
#	42205
#	49327
#	70645
#	92122
#	100892
#	112562
#	124977
#	137235
#	151582
#	178422
#	197002
#	209417
#	224667
#	246987
#
# Disc length: 3542 seconds
#
# Revision: 0
# Processed by: cddbd v1.5.1PL0 Copyright (c) Steve Scherf et al.
# Submitted via: CDex 1.51
#
DISCID=f00dd410
DTITLE=Mimi Blais with Sophie Rivard - Made in Québec (Musique de Jean-Baptiste Lafraniére)
DYEAR=2002
DGENRE=Jazz
TTITLE0=Marche Nationale (1904)
TTITLE1=Jânnot Valse (1911)
TTITLE2=Les cascades (caprice brillant, 1899)
TTITLE3=Aeroplane Waltz (1912)
TTITLE4=Valse Miroir (1907)
TTITLE5=A la Québécoise (1908)
TTITLE6=John Chow Chow Rag (1912)
TTITLE7=Sillyâss two-step (1907)
TTITLE8=Raggity Rag (1907)
TTITLE9=Taxi Rag (1911)
TTITLE10=National (valse-lanciers, 1911)
TTITLE11=Balloon Rag (1911)
TTITLE12=Victo (mazurka, 1904)
TTITLE13=Railleuse (gavotte, 1914)
TTITLE14=S'VON (valse élégante, 1912)
TTITLE15=Valse Miroir (version avec violin, 1907)
EXTD=YEAR: 2002
EXTT0=
EXTT1=
EXTT2=
EXTT3=
EXTT4=
EXTT5=
EXTT6=
EXTT7=
EXTT8=
EXTT9=
EXTT10=
EXTT11=
EXTT12=
EXTT13=
EXTT14=
EXTT15=
PLAYORDER=
